<svg width="127" height="75" viewBox="0 0 127 75" fill="none" xmlns="http://www.w3.org/2000/svg">
<line y1="-1.5" x2="10.6969" y2="-1.5" transform="matrix(0.97292 -0.231143 0.236862 0.971543 21.0632 48.0452)" stroke="#815A3D" stroke-width="3"/>
<line y1="-1.5" x2="10.9678" y2="-1.5" transform="matrix(0.977797 -0.209555 0.214794 0.976659 18.0649 37.2844)" stroke="#815A3D" stroke-width="3"/>
<line y1="-1.5" x2="10.9678" y2="-1.5" transform="matrix(0.977797 -0.209555 0.214794 0.976659 19.4055 42.5776)" stroke="#815A3D" stroke-width="3"/>
<line y1="-2.5" x2="62.3313" y2="-2.5" transform="matrix(0.215067 -0.976599 0.97774 0.209822 5 75)" stroke="#CBCBC8" stroke-width="5"/>
<line y1="-2.5" x2="62.6333" y2="-2.5" transform="matrix(0.235433 0.971891 -0.973251 0.229744 15.7244 14.1272)" stroke="#CBCBC8" stroke-width="5"/>
<path d="M8 57.0137H101" stroke="#CBCBC8" stroke-width="5"/>
<path d="M44.502 20.584V24.0508H30.2197V20.584H44.502ZM35.0537 14.1631H39.5703V40.457C39.5703 41.3522 39.7087 42.0277 39.9854 42.4834C40.262 42.9391 40.6201 43.2402 41.0596 43.3867C41.499 43.5332 41.971 43.6064 42.4756 43.6064C42.8499 43.6064 43.2406 43.5739 43.6475 43.5088C44.0706 43.4274 44.388 43.3623 44.5996 43.3135L44.624 47C44.266 47.1139 43.7939 47.2197 43.208 47.3174C42.6383 47.4313 41.9466 47.4883 41.1328 47.4883C40.026 47.4883 39.0088 47.2686 38.0811 46.8291C37.1533 46.3896 36.4128 45.6572 35.8594 44.6318C35.3223 43.5902 35.0537 42.1904 35.0537 40.4326V14.1631Z" fill="#C4C4C4"/>
<path d="M54.3164 24.7344V47H49.7998V20.584H54.1943L54.3164 24.7344ZM62.5684 20.4375L62.5439 24.6367C62.1696 24.5553 61.8115 24.5065 61.4697 24.4902C61.1442 24.4577 60.7699 24.4414 60.3467 24.4414C59.305 24.4414 58.3854 24.6042 57.5879 24.9297C56.7904 25.2552 56.1149 25.7109 55.5615 26.2969C55.0081 26.8828 54.5687 27.5827 54.2432 28.3965C53.9339 29.194 53.7305 30.0729 53.6328 31.0332L52.3633 31.7656C52.3633 30.1706 52.5179 28.6732 52.8271 27.2734C53.1527 25.8737 53.6491 24.6367 54.3164 23.5625C54.9837 22.472 55.8301 21.6257 56.8555 21.0234C57.8971 20.4049 59.1341 20.0957 60.5664 20.0957C60.8919 20.0957 61.2663 20.1364 61.6895 20.2178C62.1126 20.2829 62.4056 20.3561 62.5684 20.4375ZM82.9053 40.8965V20.584H87.4463V47H83.125L82.9053 40.8965ZM83.7598 35.3301L85.6396 35.2812C85.6396 37.0391 85.4525 38.6667 85.0781 40.1641C84.7201 41.6452 84.1341 42.931 83.3203 44.0215C82.5065 45.112 81.4404 45.9665 80.1221 46.585C78.8037 47.1872 77.2005 47.4883 75.3125 47.4883C74.0267 47.4883 72.8467 47.3011 71.7725 46.9268C70.7145 46.5524 69.8031 45.9746 69.0381 45.1934C68.2731 44.4121 67.679 43.3949 67.2559 42.1416C66.849 40.8883 66.6455 39.3828 66.6455 37.625V20.584H71.1621V37.6738C71.1621 38.862 71.2923 39.8467 71.5527 40.6279C71.8294 41.3929 72.1956 42.0033 72.6514 42.459C73.1234 42.8984 73.6442 43.2077 74.2139 43.3867C74.7998 43.5658 75.402 43.6553 76.0205 43.6553C77.9411 43.6553 79.4629 43.2891 80.5859 42.5566C81.709 41.8079 82.5146 40.807 83.0029 39.5537C83.5075 38.2842 83.7598 36.8763 83.7598 35.3301ZM99.2383 9.5V47H94.6973V9.5H99.2383ZM113.911 44.2656L121.26 20.584H126.094L115.498 51.0771C115.254 51.7282 114.928 52.4281 114.521 53.1768C114.131 53.9417 113.626 54.666 113.008 55.3496C112.389 56.0332 111.641 56.5866 110.762 57.0098C109.899 57.4492 108.866 57.6689 107.661 57.6689C107.303 57.6689 106.847 57.6201 106.294 57.5225C105.741 57.4248 105.35 57.3434 105.122 57.2783L105.098 53.6162C105.228 53.6325 105.431 53.6488 105.708 53.665C106.001 53.6976 106.204 53.7139 106.318 53.7139C107.344 53.7139 108.215 53.5755 108.931 53.2988C109.647 53.0384 110.249 52.5908 110.737 51.9561C111.242 51.3376 111.673 50.4831 112.031 49.3926L113.911 44.2656ZM108.516 20.584L115.376 41.0918L116.548 45.8525L113.301 47.5127L103.584 20.584H108.516Z" fill="#607966"/>
</svg>
