<svg width="76" height="49" viewBox="0 0 76 49" fill="none" xmlns="http://www.w3.org/2000/svg">
<line y1="-1" x2="8.5074" y2="-1" transform="matrix(0.973386 -0.22917 0.238893 0.971046 13.9858 26.9496)" stroke="#815A3D" stroke-width="2"/>
<line y1="-1" x2="8.72366" y2="-1" transform="matrix(0.978182 -0.207749 0.216655 0.976248 11.6001 18.4646)" stroke="#815A3D" stroke-width="2"/>
<line y1="-1" x2="8.72366" y2="-1" transform="matrix(0.978182 -0.207749 0.216655 0.976248 12.6667 22.6384)" stroke="#815A3D" stroke-width="2"/>
<line y1="-1" x2="49.1709" y2="-1" transform="matrix(0.21693 -0.976187 0.978126 0.208014 2 49)" stroke="#CBCBC8" stroke-width="2"/>
<line y1="-1" x2="49.4133" y2="-1" transform="matrix(0.237453 0.971399 -0.973712 0.227782 10.5334 1)" stroke="#CBCBC8" stroke-width="2"/>
<line x1="4" y1="33" x2="76" y2="33" stroke="#CBCBC8" stroke-width="2"/>
<path d="M33.0132 11.3203V12.9844H26.1577V11.3203H33.0132ZM28.478 8.23828H30.646V20.8594C30.646 21.2891 30.7124 21.6133 30.8452 21.832C30.978 22.0508 31.1499 22.1953 31.3608 22.2656C31.5718 22.3359 31.7983 22.3711 32.0405 22.3711C32.2202 22.3711 32.4077 22.3555 32.603 22.3242C32.8062 22.2852 32.9585 22.2539 33.0601 22.2305L33.0718 24C32.8999 24.0547 32.6733 24.1055 32.3921 24.1523C32.1187 24.207 31.7866 24.2344 31.396 24.2344C30.8647 24.2344 30.3765 24.1289 29.9312 23.918C29.4858 23.707 29.1304 23.3555 28.8647 22.8633C28.6069 22.3633 28.478 21.6914 28.478 20.8477V8.23828Z" fill="#C4C4C4"/>
<path d="M37.7241 13.3125V24H35.5562V11.3203H37.6655L37.7241 13.3125ZM41.6851 11.25L41.6733 13.2656C41.4937 13.2266 41.3218 13.2031 41.1577 13.1953C41.0015 13.1797 40.8218 13.1719 40.6187 13.1719C40.1187 13.1719 39.6772 13.25 39.2944 13.4062C38.9116 13.5625 38.5874 13.7812 38.3218 14.0625C38.0562 14.3438 37.8452 14.6797 37.689 15.0703C37.5405 15.4531 37.4429 15.875 37.396 16.3359L36.7866 16.6875C36.7866 15.9219 36.8608 15.2031 37.0093 14.5312C37.1655 13.8594 37.4038 13.2656 37.7241 12.75C38.0444 12.2266 38.4507 11.8203 38.9429 11.5312C39.4429 11.2344 40.0366 11.0859 40.7241 11.0859C40.8804 11.0859 41.0601 11.1055 41.2632 11.1445C41.4663 11.1758 41.6069 11.2109 41.6851 11.25ZM51.4468 21.0703V11.3203H53.6265V24H51.5522L51.4468 21.0703ZM51.8569 18.3984L52.7593 18.375C52.7593 19.2188 52.6694 20 52.4897 20.7188C52.3179 21.4297 52.0366 22.0469 51.646 22.5703C51.2554 23.0938 50.7437 23.5039 50.1108 23.8008C49.478 24.0898 48.7085 24.2344 47.8022 24.2344C47.1851 24.2344 46.6187 24.1445 46.103 23.9648C45.5952 23.7852 45.1577 23.5078 44.7905 23.1328C44.4233 22.7578 44.1382 22.2695 43.9351 21.668C43.7397 21.0664 43.6421 20.3438 43.6421 19.5V11.3203H45.8101V19.5234C45.8101 20.0938 45.8726 20.5664 45.9976 20.9414C46.1304 21.3086 46.3062 21.6016 46.5249 21.8203C46.7515 22.0312 47.0015 22.1797 47.2749 22.2656C47.5562 22.3516 47.8452 22.3945 48.1421 22.3945C49.064 22.3945 49.7944 22.2188 50.3335 21.8672C50.8726 21.5078 51.2593 21.0273 51.4937 20.4258C51.7358 19.8164 51.8569 19.1406 51.8569 18.3984ZM59.2866 6V24H57.1069V6H59.2866ZM66.3296 22.6875L69.8569 11.3203H72.1772L67.0913 25.957C66.9741 26.2695 66.8179 26.6055 66.6226 26.9648C66.4351 27.332 66.1929 27.6797 65.896 28.0078C65.5991 28.3359 65.2397 28.6016 64.8179 28.8047C64.4038 29.0156 63.9077 29.1211 63.3296 29.1211C63.1577 29.1211 62.939 29.0977 62.6733 29.0508C62.4077 29.0039 62.2202 28.9648 62.1108 28.9336L62.0991 27.1758C62.1616 27.1836 62.2593 27.1914 62.3921 27.1992C62.5327 27.2148 62.6304 27.2227 62.6851 27.2227C63.1772 27.2227 63.5952 27.1562 63.939 27.0234C64.2827 26.8984 64.5718 26.6836 64.8062 26.3789C65.0483 26.082 65.2554 25.6719 65.4272 25.1484L66.3296 22.6875ZM63.7397 11.3203L67.0327 21.1641L67.5952 23.4492L66.0366 24.2461L61.3726 11.3203H63.7397Z" fill="#607966"/>
</svg>
