<svg width="103" height="52" viewBox="0 0 103 52" fill="none" xmlns="http://www.w3.org/2000/svg">
<path d="M17.6917 29.0718L26.1159 27.1285" stroke="#815A3D" stroke-width="3"/>
<path d="M15.2917 20.6079L23.9726 18.8015" stroke="#815A3D" stroke-width="3"/>
<path d="M16.377 24.7684L25.0578 22.962" stroke="#815A3D" stroke-width="3"/>
<path d="M3 51L13.8511 3.1566" stroke="#CBCBC8" stroke-width="5"/>
<path d="M15.6309 3.11743L27.5671 50.9608" stroke="#CBCBC8" stroke-width="5"/>
<path d="M7.40771 37.2758H82.6875" stroke="#CBCBC8" stroke-width="5"/>
<path d="M36.9546 8.79068V11.5402H25.3937V8.79068H36.9546ZM29.3066 3.69824H32.9626V24.552C32.9626 25.262 33.0746 25.7978 33.2986 26.1592C33.5225 26.5206 33.8124 26.7594 34.1681 26.8756C34.5238 26.9918 34.9059 27.0498 35.3143 27.0498C35.6173 27.0498 35.9336 27.0241 36.2629 26.9724C36.6054 26.9079 36.8623 26.8562 37.0336 26.8175L37.0534 29.7413C36.7636 29.8316 36.3814 29.9156 35.9072 29.993C35.446 30.0834 34.8861 30.1286 34.2274 30.1286C33.3315 30.1286 32.5081 29.9543 31.7572 29.6058C31.0061 29.2572 30.4067 28.6763 29.9588 27.8631C29.524 27.037 29.3066 25.9268 29.3066 24.5327V3.69824Z" fill="#C4C4C4"/>
<path d="M44.8989 12.0825V29.7414H41.2429V8.79076H44.8001L44.8989 12.0825ZM51.5786 8.67457L51.5588 12.005C51.2558 11.9404 50.9659 11.9017 50.6892 11.8888C50.4258 11.863 50.1228 11.8501 49.7802 11.8501C48.937 11.8501 48.1926 11.9792 47.5471 12.2374C46.9015 12.4955 46.3547 12.8569 45.9068 13.3217C45.4588 13.7864 45.1031 14.3415 44.8397 14.9869C44.5893 15.6194 44.4247 16.3164 44.3456 17.0781L43.318 17.6589C43.318 16.3939 43.4431 15.2063 43.6934 14.0962C43.957 12.986 44.3588 12.005 44.8989 11.153C45.4391 10.2881 46.1242 9.61694 46.9542 9.13925C47.7974 8.64872 48.7987 8.40349 49.958 8.40349C50.2215 8.40349 50.5246 8.43577 50.8671 8.50033C51.2096 8.55196 51.4468 8.61001 51.5786 8.67457ZM68.0405 24.9007V8.79076H71.7162V29.7414H68.2183L68.0405 24.9007ZM68.7322 20.486L70.2538 20.4472C70.2538 21.8414 70.1023 23.1322 69.7993 24.3198C69.5095 25.4945 69.0351 26.5143 68.3764 27.3791C67.7177 28.244 66.8547 28.9217 65.7876 29.4123C64.7204 29.8899 63.4227 30.1287 61.8944 30.1287C60.8536 30.1287 59.8984 29.9802 59.0289 29.6833C58.1725 29.3864 57.4348 28.9281 56.8155 28.3086C56.1963 27.6889 55.7154 26.8822 55.3729 25.8882C55.0436 24.8942 54.8788 23.7002 54.8788 22.306V8.79076H58.5348V22.3448C58.5348 23.2871 58.6402 24.0681 58.851 24.6877C59.075 25.2944 59.3714 25.7785 59.7404 26.1399C60.1224 26.4884 60.544 26.7337 61.0051 26.8757C61.4794 27.0177 61.9669 27.0887 62.4675 27.0887C64.0222 27.0887 65.254 26.7983 66.163 26.2173C67.0721 25.6235 67.7242 24.8297 68.1195 23.8357C68.5279 22.8289 68.7322 21.7123 68.7322 20.486ZM81.2614 0V29.7414H77.5856V0H81.2614ZM93.1383 27.5727L99.0871 8.79076H103L94.4229 32.975C94.2254 33.4913 93.9616 34.0464 93.6321 34.6402C93.3164 35.2469 92.9076 35.8213 92.4074 36.3635C91.9063 36.9057 91.3009 37.3446 90.5893 37.6802C89.8908 38.0287 89.0546 38.2029 88.0792 38.2029C87.7894 38.2029 87.4203 38.1642 86.9727 38.0868C86.5251 38.0093 86.2086 37.9448 86.024 37.8932L86.0046 34.9887C86.1098 35.0017 86.2741 35.0146 86.4983 35.0274C86.7355 35.0533 86.8998 35.0662 86.9921 35.0662C87.8226 35.0662 88.5277 34.9565 89.1072 34.737C89.6868 34.5305 90.1741 34.1755 90.5691 33.6721C90.9779 33.1816 91.3268 32.5039 91.6166 31.639L93.1383 27.5727ZM88.7713 8.79076L94.3242 25.0556L95.2729 28.8313L92.6446 30.148L84.779 8.79076H88.7713Z" fill="#607966"/>
</svg>
